<?xml version="1.0" encoding="UTF-8"?>
<mxfile host="app.diagrams.net" modified="2023-12-19T08:00:00.000Z" agent="Mozilla/5.0" version="21.6.8">
  <diagram name="Carrier Integration Swimlane" id="carrier-integration-process">
    <mxGraphModel dx="1422" dy="762" grid="1" gridSize="10" guides="1" tooltips="1" connect="1" arrows="1" fold="1" page="1" pageScale="1" pageWidth="1500" pageHeight="900" math="0" shadow="0">
      <root>
        <mxCell id="0"/>
        <mxCell id="1" parent="0"/>

        <!-- 图例 -->
        <mxCell id="legend" value="图例" style="swimlane;fontStyle=0;childLayout=stackLayout;horizontal=1;startSize=30;horizontalStack=0;resizeParent=1;resizeParentMax=0;resizeChild=1;collapsible=1;marginBottom=0;whiteSpace=wrap;html=1;" parent="1">
          <mxGeometry x="40" y="10" width="140" height="120" as="geometry"/>
        </mxCell>
        <mxCell id="legend1" value="当前流程" style="text;strokeColor=none;fillColor=#E3F2FD;align=left;verticalAlign=middle;spacingLeft=4;spacingRight=4;overflow=hidden;points=[[0,0.5],[1,0.5]];portConstraint=eastwest;rotatable=0;whiteSpace=wrap;html=1;" parent="legend">
          <mxGeometry y="30" width="140" height="30" as="geometry"/>
        </mxCell>

        <!-- 主标题 -->
        <mxCell id="title" value="Carrier Integration Process" style="text;html=1;strokeColor=none;fillColor=none;align=center;verticalAlign=middle;whiteSpace=wrap;rounded=0;fontSize=16;fontStyle=1" parent="1">
          <mxGeometry x="650" y="20" width="200" height="30" as="geometry"/>
        </mxCell>

        <!-- 阶段标题栏 -->
        <mxCell id="phase-header" value="阶段" style="swimlane;childLayout=stackLayout;resizeParent=1;resizeParentMax=0;horizontal=1;startSize=30;horizontalStack=0;html=1;" parent="1">
          <mxGeometry x="40" y="140" width="1400" height="800" as="geometry"/>
        </mxCell>

        <!-- 泳道内容 -->
        <mxCell id="customer" value="Customer" style="swimlane;startSize=30;horizontal=0;html=1;" parent="phase-header">
          <mxGeometry y="30" width="1400" height="80" as="geometry"/>
          <mxCell id="customer-req1" value="提供业务需求" style="rounded=1;whiteSpace=wrap;html=1;fillColor=#FFF3E0;" parent="customer">
            <mxGeometry x="170" y="10" width="100" height="60" as="geometry"/>
          </mxCell>
          <!-- ... 其他 Customer 任务 ... -->
        </mxCell>

        <mxCell id="carrier" value="Carrier" style="swimlane;startSize=30;horizontal=0;html=1;" parent="phase-header">
          <mxGeometry y="110" width="1400" height="80" as="geometry"/>
          <!-- ... Carrier 任务 ... -->
        </mxCell>

        <!-- ... 其他泳道 ... -->

        <!-- 连接箭头 -->
        <mxCell id="arrow1" edge="1" parent="1" source="customer-req1" target="sales-req1">
          <mxGeometry relative="1" as="geometry"/>
          <mxStyle includes="endArrow=classic;html=1;curved=1;"/>
        </mxCell>

      </root>
    </mxGraphModel>
  </diagram>
</mxfile>